#N canvas 174 299 450 437 10;
#X msg 152 25 listen 9001;
#X obj 153 106 netreceive 9001;
#X msg 258 46 listen 0;
#X obj 153 138 unpack float float;
#X obj 153 207 makenote 127;
#X obj 153 239 noteout;
#X obj 103 169 print;
#X obj 47 101 bng 15 250 50 0 empty empty empty 17 7 0 10 -262144 -1
-1;
#X obj 314 169 print;
#X connect 0 0 1 0;
#X connect 1 0 3 0;
#X connect 2 0 1 0;
#X connect 3 0 6 0;
#X connect 3 0 4 0;
#X connect 3 1 4 2;
#X connect 3 1 8 0;
#X connect 4 0 5 0;
#X connect 4 1 5 1;
#X connect 7 0 3 0;
